<svg xmlns="http://www.w3.org/2000/svg" viewBox="0 0 200 200">
  <!-- This is a simplified version - you'll want to replace this with the actual SVG file -->
  <defs>
    <linearGradient id="grad1" x1="0%" y1="0%" x2="0%" y2="100%">
      <stop offset="0%" style="stop-color:#2E8B8B;stop-opacity:1" />
      <stop offset="100%" style="stop-color:#7CB342;stop-opacity:1" />
    </linearGradient>
  </defs>
  
  <!-- Simplified representation of your logo -->
  <g transform="translate(40, 40)">
    <!-- Main spiral design -->
    <path d="M60 20 C80 20, 100 40, 100 60 C100 80, 80 100, 60 100 C40 100, 20 80, 20 60 C20 40, 40 20, 60 20 Z" 
          fill="none" 
          stroke="url(#grad1)" 
          stroke-width="8"/>
    
    <!-- Secondary spirals -->
    <path d="M30 50 C50 50, 70 70, 70 90 C70 110, 50 130, 30 130 C10 130, -10 110, -10 90 C-10 70, 10 50, 30 50 Z" 
          fill="none" 
          stroke="url(#grad1)" 
          stroke-width="6"/>
    
    <path d="M90 50 C110 50, 130 70, 130 90 C130 110, 110 130, 90 130 C70 130, 50 110, 50 90 C50 70, 70 50, 90 50 Z" 
          fill="none" 
          stroke="url(#grad1)" 
          stroke-width="6"/>
  </g>
</svg>
